<?xml version="1.0" encoding="utf-8"?>
<!-- Generator: Adobe Illustrator 21.0.0, SVG Export Plug-In . SVG Version: 6.00 Build 0)  -->
<svg version="1.1" id="Capa_1" xmlns="http://www.w3.org/2000/svg" xmlns:xlink="http://www.w3.org/1999/xlink" x="0px" y="0px"
	 viewBox="0 0 870 332" style="enable-background:new 0 0 870 332;" xml:space="preserve">
<style type="text/css">
	.st0{fill:#6D6D6D;}
</style>
<g>
	<path class="st0" d="M403.3,125.5c-1.1,0-2.2,0.6-3.3,1.7c-2,2.8-4.3,5.1-6.8,6.9c-2.5,1.8-4.5,2.7-6,2.7c-1.5,0-2.3-0.9-2.3-2.7
		c0-0.6,0-1.1,0.2-1.4l4.3-24.5c0.1-0.3,0.2-0.8,0.2-1.5c0-2.8-1.5-4.3-4.4-4.3h-0.9l-4.1,0.5l0.2-1.2c0-2.2-2.1-3.3-6.2-3.3
		c-7.1,0-14,3.2-20.6,9.7c-6.6,6.5-10,14.6-10,24.2c0,0,0,0.1,0,0.1c-4.5,4.2-8.6,6.3-12.3,6.3c-4.3,0-6.4-3.9-6.4-11.6
		c0-1.2,0.1-2.4,0.3-3.7c9.2-7.3,17.7-17.4,25.3-30.3c7.7-12.9,11.5-23.3,11.5-31.3c0-7.9-3.6-11.9-10.8-11.9
		c-5.6,0-10.8,2.5-15.7,7.4c-4.9,4.9-8.9,11.2-12.2,18.9c-6.6,15.5-10.6,30.8-12.2,45.8c-0.1,0.8-0.1,2-0.1,3.5
		c-1.1,0-2.1,0.6-3.2,1.7c-2,2.8-4.3,5.1-6.8,6.9c-2.5,1.8-4.5,2.7-6,2.7c-1.5,0-2.3-0.9-2.3-2.7c0-0.6,0-1.1,0.2-1.4l4.3-24.5
		c0.1-0.3,0.2-0.8,0.2-1.5c0-2.8-1.5-4.3-4.4-4.3h-0.9l-4.1,0.5l0.2-1.2c0-2.2-2.1-3.3-6.2-3.3c-7.1,0-14,3.2-20.6,9.7
		c-6.6,6.5-10,14.6-10,24.2c0,1.1,0.1,2.2,0.2,3.3c-0.2,0.1-0.5,0.3-0.7,0.4c-4.1,2.4-7.8,4.9-11,7.7l8.2-34.2c0.1-0.3,0.2-1,0.2-2
		c0-1-0.6-2.1-1.8-3.2c-1.2-1.1-2.6-1.7-4-1.7c-1.5,0-3,0.3-4.5,0.8c0-0.8-0.5-1.6-1.4-2.4c-0.9-0.8-2-1.2-3.3-1.2H232
		c-8.6,0-16.3,3.5-23,10.4c-5.2,5.4-8.4,11.5-9.6,18.4c-1.8,2.3-3.7,4.1-5.8,5.6c-2.5,1.8-4.5,2.7-6,2.7c-1.5,0-2.3-0.9-2.3-2.7
		c0-0.6,0-1.1,0.2-1.4l4.3-24.5c0.1-0.3,0.2-0.8,0.2-1.5c0-2.8-1.5-4.3-4.4-4.3h-0.9l-4.1,0.5l0.2-1.2c0-2.2-2.1-3.3-6.2-3.3
		c-7.1,0-14,3.2-20.6,9.7c-6.6,6.5-10,14.6-10,24.2c0,4.6,1.1,8.5,3.3,11.7c-5.5,3.2-10.7,4.9-15.6,4.9c-3.8,0-7.5-0.9-11.3-2.7
		c-3.8-1.8-8.4-4.4-13.8-8c-5.4-3.5-10.1-6.3-13.9-8.2c0.1-0.1,4.2-4.9,12.3-14.3C123.3,94,138.4,78.8,150,69.9
		c5.1-0.1,8.9-0.5,11.6-1.2c4-0.9,5.9-3.2,5.9-6.8c0-2.1-0.6-3.8-1.8-4.9c-1.2-1.1-2.4-1.8-3.7-2.1c-1.2-0.3-3.1-0.5-5.6-0.8
		c-5.3-0.2-14.9-0.8-28.8-1.7c-13.9-0.9-23.9-1.4-29.9-1.4c-6,0-10.5,0.2-13.7,0.5c-3.1,0.3-6.5,1-10.2,2.2
		c-3.7,1.2-6.8,2.8-9.4,4.8c-6.2,4.8-10.8,12.1-13.8,21.9c-0.2,1-0.3,1.7-0.3,2c0,2.6,1.5,4,4.5,4c3,0,4.9-0.9,5.7-2.6
		c2.4-4.3,7.1-7.7,13.9-10.3c6.8-2.6,18-3.9,33.5-3.9c2.4,0,6.4,0.1,11.9,0.2c5.5,0.2,9.4,0.2,11.6,0.2l-1.8,1.2
		C124.2,75,118,79.8,111.2,86c-6.8,6.1-12.7,11.7-17.5,16.8c-4.8,5.1-9.6,10.1-14.3,15.2c-4.7,5.1-7.4,7.9-8,8.5
		c-9.9,9.7-14.9,16.2-14.9,19.5c0,1.6,0.8,3,2.4,4c1.6,1.1,3.1,1.6,4.6,1.6c1.5,0,2.5-0.2,3.2-0.7c0.7-0.5,2.9-2.1,6.8-4.9
		c3.9-2.8,6.8-4.8,8.7-6.2c2.5,1.2,7.4,4,14.5,8.2c7.1,4.3,13.4,7.5,18.9,9.6c5.4,2.1,11,3.2,16.7,3.2c8.5,0,17-2.7,25.4-8.2
		c1.1-0.8,2-1.6,2.7-2.4c5.1-0.1,9.4-2.6,12.9-7.4l2-2.7c0.2,2.5,1.3,4.7,3.3,6.5c2,1.8,4.7,2.7,8.3,2.7c3.5,0,7.2-1.4,11-4.1
		c1-0.7,2-1.5,3-2.3c0.6,1.1,1.3,2.1,2.2,3c2.8,2.9,6.9,4.3,12.2,4.3c5.4,0,9.7-2,13.1-6.1l-1.1,6.1c-23.4,13.9-35.1,26.2-35.1,37
		c0,3.9,1.1,6.8,3.4,9c2.3,2.1,5.6,3.2,10,3.2c4.4,0,8.3-1.2,11.9-3.5c3.6-2.3,6.7-5.7,9.2-10.2c4.2-7.5,7.7-17.5,10.6-30
		c4.2-2.6,9.2-5.4,15.1-8.3c1.2-0.6,2.4-1.2,3.4-1.7c2.8,3,6.6,4.5,11.5,4.5c5.2,0,9.6-2.5,13.2-7.5l2-2.7c0.2,2.5,1.3,4.7,3.3,6.5
		c2,1.8,4.7,2.7,8.3,2.7c3.5,0,7.2-1.4,11-4.1c3-2.1,5.6-4.5,7.8-7c0.7,1.9,1.7,3.7,2.8,5.3c3.2,4.5,7.6,6.8,13.1,6.8
		c6.2,0,12.2-2.2,17.8-6.5c0.3,0.5,0.7,0.9,1,1.4c2.8,3.4,6.9,5.1,12.1,5.1c5.2,0,9.6-2.5,13.2-7.5l2-2.7c0.2,2.5,1.3,4.7,3.3,6.5
		c2,1.8,4.7,2.7,8.3,2.7c3.5,0,7.2-1.4,11-4.1c3.8-2.7,7-5.8,9.5-9.1c0.3-0.9,0.5-2,0.5-3.3c0-1.3-0.4-2.9-1.2-4.6
		C405.4,126.3,404.4,125.5,403.3,125.5z M334.8,79.7c3.8-10,7.7-15.1,11.6-15.1c1.3,0,2,1,2,2.9c-0.1,4.1-2.5,10.6-7.1,19.6
		c-4.6,9-9.5,16.6-14.7,22.8C328.3,99.8,331,89.7,334.8,79.7z M174.7,123.9c-1,4.7-2.6,8.1-4.8,10.3c-2.2,2.2-4.5,3.3-6.9,3.3
		c-4.1,0-6.1-2.4-6.1-7.1c0-4.8,2.1-9.7,6.2-14.8c4.1-5.1,9.2-7.8,15.1-8.1L174.7,123.9z M223.1,171.5c-1.6,3.9-3.8,7.7-6.8,11.3
		c-2.9,3.7-6,5.5-9.1,5.5c-1.9,0-2.9-1.1-2.9-3.2c0-2.1,0.8-4.4,2.5-6.8c1.7-2.4,3.4-4.4,5.2-6c3.3-2.7,8-6.3,14-10.8
		C225.7,164.2,224.7,167.6,223.1,171.5z M231.1,124.5c-2.7,9.3-7.1,14-13.2,14c-2.9,0-4.4-2-4.4-6.1c0-4.1,2.2-8.5,6.5-13.5
		c4.3-4.9,9.2-7.6,14.7-8L231.1,124.5z M281.9,123.9c-1,4.7-2.6,8.1-4.8,10.3c-2.2,2.2-4.5,3.3-6.9,3.3c-1.6,0-2.9-0.4-3.9-1.1
		c-0.3-0.9-0.8-1.8-1.6-2.5c0,0-0.1-0.1-0.1-0.1c-0.3-0.9-0.5-2.1-0.5-3.4c0-4.8,2.1-9.7,6.2-14.8c4.1-5.1,9.2-7.8,15.1-8.1
		L281.9,123.9z M374.2,123.9c-1,4.7-2.6,8.1-4.8,10.3c-2.2,2.2-4.5,3.3-6.9,3.3c-4.1,0-6.1-2.4-6.1-7.1c0-4.8,2.1-9.7,6.2-14.8
		c4.1-5.1,9.2-7.8,15.1-8.1L374.2,123.9z"/>
	<path class="st0" d="M500.9,125.3c-1.2,0-2.4,0.5-3.6,1.4c-2.7,2-11.7,7.8-26.9,17.3c1.2-7.4,2.6-14.7,4.2-21.8
		c1.6-7.1,2.4-12.1,2.4-14.8c0-1.2-0.6-2.2-1.8-2.8c-1.2-0.7-2.5-1-4-1c-3.2,0-5.5,2.4-6.8,7.3l-4.1,14c-2.6,8.5-6,13.2-10.2,14.1
		h-1.1c-3.3,0-5-2-5-5.9c0-3.9,0.9-9.5,2.7-16.8c0.3-0.6,0.8-1.5,1.4-2.6c1.5-2.5,2.3-4.6,2.3-6.1c0-1.5-0.6-2.7-1.7-3.5
		c-1.2-0.8-2.5-1.2-3.9-1.2c-1.4,0-3,0.5-4.8,1.6c-1.8,1.1-3,2.3-3.7,3.7c-4.6,8.6-6.8,17.6-6.8,26.9c0,4.3,1.4,7.7,4.3,10.3
		c2.8,2.6,6.2,4,10.2,4c2,0,4.8-1,8.3-3c3.5-2,6.3-4.9,8.4-8.7l-5,13.4c-1.6,1.1-4.2,2.8-7.8,5.2c-7.2,4.8-12.5,9-15.8,12.6
		c-0.4,0.5-1.3,1.5-2.6,2.9c-1.3,1.4-2.3,2.6-3,3.4c-0.7,0.9-1.4,2-2.4,3.3c-1.6,2.5-2.4,5.6-2.4,9.1s1.1,6,3.4,7.5
		c2.3,1.5,5.7,2.2,10.1,2.2c4.5,0,8.5-0.9,12.1-2.6c3.6-1.7,6.5-3.8,8.7-6.3c2.2-2.5,4.1-5.7,5.9-9.7c2.7-6,4.9-13.3,6.5-22.1
		c17.4-9.6,28.5-16.2,33.3-19.6c2.7-1.8,4.1-3.7,4.1-5.7s-0.5-3.5-1.5-4.5C503.1,125.8,502,125.3,500.9,125.3z M446.7,179.2
		c-3.1,5.1-6.4,7.6-9.8,7.6l-1.1-0.2c-0.5,0-0.8-0.4-0.8-1.2c0-2,2.4-5.9,7.2-11.6c4.8-5.7,8.3-9.1,10.6-10.3
		C451.9,168.9,449.8,174.1,446.7,179.2z"/>
	<path class="st0" d="M591.6,98.2c-0.6,0-3.4,0-8.5,0.1c-5.1,0.1-8,0.1-8.8,0.1c2-6.6,3.9-14,5.6-22.4c1.7-8.3,2.6-14.9,2.8-19.6
		c4.1-0.2,7.2-0.3,9.6-0.3c14.8,0,27.3,0.9,37.4,2.6h0.5c1.2,0,2.2-0.8,2.8-2.5c0.7-1.7,1-3.5,1-5.4c0-3.2-2.6-5.6-7.9-7.1
		c-5.3-1.5-13.7-2.2-25.3-2.2c-2.4,0-8.1,0.2-17,0.5c-8.9,0.3-17.7,1.7-26.4,4.1c-8.7,2.4-15.6,5.4-20.9,8.9
		c-5.3,3.5-9.6,7.5-13.1,12.1c-6.2,7.9-9.3,16.3-9.3,25.3c0,6.9,1.5,11.8,4.6,14.6c1.7,2.8,5.3,4.3,10.7,4.3c5.4,0,8.1-0.7,8.1-2
		c0-0.3-0.1-0.6-0.3-0.8c-4-3.7-5.9-9.3-5.9-16.8c0-7.6,3.1-14.7,9.4-21.4c6.3-6.7,16-10.9,29.2-12.6c-0.3,0.8-1.1,3.9-2.4,9.1
		c-3.7,14-6.5,24.7-8.5,32.1C551,99,547,101.4,547,106c0.1,3.9,2.1,5.8,6.1,5.8h2.7c-3.6,11.6-7.4,19.6-11.6,24
		c-4.2,4.5-6.2,6.7-6.2,6.7s-2.4,0-7.2,0c-4.8,0-9.4-1.7-13.8-5.2c-0.7-0.5-1.4-0.8-2-0.8c-1.8,0-3.7,1.1-5.6,3.4
		c-1.9,2.3-2.8,4.3-2.8,6c0,1.7,0.3,2.9,0.9,3.7c2.4,2.8,5.7,5.2,9.8,7.1c4.1,1.9,8.2,2.8,12.2,2.8c4,0,7.6-0.5,10.7-1.4
		c3.1-0.9,5.9-2,8.1-3.3c2.3-1.3,4.5-3.3,6.6-5.9c2.1-2.6,3.8-5,5.1-7.1c1.3-2.1,2.7-5.1,4.2-9.2c2-5,4.4-11.9,7.1-20.8
		c6.3,0,13.2-0.4,20.7-1.1c2.4-0.3,3.7-2.5,3.7-6.5C595.9,100.2,594.4,98.2,591.6,98.2z"/>
	<path class="st0" d="M710.4,91.4c2.8,0,5.2-0.8,7-2.4c1.8-1.6,2.7-3.9,2.7-6.7c0-5.9-3.1-8.8-9.3-8.8c-2.8,0-5.3,0.9-7.3,2.6
		c-2,1.7-3,4-3,6.8C700.5,88.5,703.8,91.4,710.4,91.4z"/>
	<path class="st0" d="M818.3,136.4c0.9-1.2,1.4-2.4,1.4-3.6c0-1.2-0.5-2.2-1.4-3.1c-1-0.9-2-1.4-3-1.4c-1,0-1.9,0.4-2.6,1.1
		c-2.9,2.7-6.4,4.9-10.4,6.5c-4,1.6-8,2.4-12,2.4c-4,0-6.7-1.3-8.1-4c9-1.5,15.8-4.1,20.4-7.7c4.6-3.6,6.8-7.8,6.8-12.5
		c0-4.8-1.3-8.4-3.8-11c-2.5-2.5-6-3.8-10.3-3.8c-3.1,0-5.9,0.6-8.7,1.7c-0.1,0-0.1-0.1-0.1-0.2c-0.1-0.2-0.3-0.3-0.5-0.2
		c-0.4,0.4-0.7,0.7-1.1,1.1c-3.3,1.7-6.3,4.2-9.1,7.6c-0.6,0.7-1.1,1.4-1.7,2.2c-0.7,0.6-1.5,1.2-2.4,1.8c-3.4,2.5-6.3,4.1-8.6,4.7
		c0.1-1.3,0.2-2.6,0.2-3.8c0-4.5-1.1-8.1-3.3-11c-2.2-2.8-5.7-4.3-10.4-4.3c-4.7,0-8.9,0.8-12.6,2.4c-3.7,1.6-6.9,4.5-9.6,8.5
		c-2.7,4.1-4.6,7.3-5.6,9.8c-0.9,2-1.8,4.4-2.8,7.3c-0.7,0.3-1.3,0.8-1.8,1.5c-5.8,6.7-10.5,10-14.3,10c-3.1,0-4.7-2.5-4.7-7.6
		c0-7,2.4-15.2,7.3-24.5c0.5-1,0.8-2.1,0.8-3.2c0-1.1-0.6-2.1-1.9-3c-1.3-0.9-2.9-1.3-4.9-1.3c-3.3,0-6.1,1.7-8.1,5.2
		c-2.1,3.5-3.8,7.8-5.2,13c-1.2,4.4-1.9,8.6-2.1,12.4c-5.4,5.8-10.4,8.7-14.8,8.7c-4.3,0-6.4-3.9-6.4-11.6c0-1.2,0.1-2.4,0.3-3.7
		c9.2-7.3,17.7-17.4,25.3-30.3c7.7-12.9,11.5-23.3,11.5-31.3c0-7.9-3.6-11.9-10.8-11.9c-5.6,0-10.8,2.5-15.7,7.4
		c-4.9,4.9-8.9,11.2-12.2,18.9c-6.6,15.5-10.6,30.8-12.2,45.8c-0.1,0.9-0.2,2.2-0.2,4c0,1.2,0.1,2.3,0.1,3.4
		c-0.8-0.6-1.6-0.9-2.4-0.9c-1,0-1.9,0.4-2.6,1.1c-2.9,2.7-6.4,4.9-10.4,6.5c-4,1.6-8,2.4-12,2.4c-4,0-6.7-1.3-8.1-4
		c9-1.5,15.8-4.1,20.4-7.7c4.6-3.6,6.8-7.8,6.8-12.5c0-4.8-1.3-8.4-3.8-11c-2.5-2.5-6-3.8-10.3-3.8c-7.5,0-14,3.3-19.5,10
		c-5.5,6.7-8.2,13.6-8.2,20.7c0,7.1,2.1,12.2,6.4,15.4c4.3,3.2,9.4,4.8,15.4,4.8c6,0,11.7-1.4,17.1-4.3c5.4-2.8,9.3-6.1,11.9-9.7
		c0.2-0.2,0.3-0.5,0.5-0.7c0.8,2.9,2,5.5,3.6,7.8c3.2,4.5,7.6,6.8,13.1,6.8c6.8,0,13.3-2.6,19.4-7.8c0.5,1,1.1,1.9,1.9,2.7
		c2.8,3.3,6.5,4.9,11,4.9c4.5,0,8.9-1.2,13.3-3.5c0.2-0.1,0.4-0.3,0.7-0.4c-0.9,3.8-2,8.7-3.3,14.7c-3.1,14.2-4.7,22.3-4.7,24
		c0,1.8,0.3,2.7,0.9,2.7l1.7-0.2c1.7,0,3.6-0.7,5.6-2.1c2-1.4,3.3-2.8,4-4.3h0.2c1.4,0,3.5-6.9,6.4-20.7c0.7-3,1.3-5.9,1.9-8.5
		c0.6-2.6,0.9-4.2,1-4.6c2.6,2.2,5.2,3.3,7.6,3.3c5.7,0,10.9-2.1,15.6-6.2c4.7-4.2,8.3-9.4,10.7-15.7c2.4-0.8,4.9-1.9,7.6-3.4
		c-0.3,1.6-0.4,3.1-0.4,4.7c0,7.1,2.1,12.2,6.4,15.4c4.3,3.2,9.4,4.8,15.4,4.8c6,0,11.7-1.4,17.1-4.3
		C811.8,143.3,815.7,140.1,818.3,136.4z M672.6,79.7c3.8-10,7.7-15.1,11.6-15.1c1.3,0,2,1,2,2.9c-0.1,4.1-2.5,10.6-7.1,19.6
		c-4.6,9-9.5,16.6-14.7,22.8C666.1,99.8,668.8,89.7,672.6,79.7z M616.4,116.2c2.8-3.2,5.7-4.9,8.4-4.9c2.8,0,4.2,1,4.2,2.9
		c0,2.4-1.9,5-5.8,7.7c-3.9,2.7-7.6,4.5-11.1,5.4C612.1,123.1,613.6,119.4,616.4,116.2z M744.9,117.7c-1.1,1.1-1.7,3-1.7,5.6
		c0,2.6,1.4,4.5,4.3,5.7c-2.6,4.7-5.8,7.8-9.4,9.4c-1.3,0.5-2.6,0.8-3.8,0.8c-1.6,0-3.6-0.8-5.8-2.4l1.8-6.1c3-10,6.1-16.1,9.3-18.3
		c1.6-1,3.4-1.5,5.4-1.5c2,0,3.5,1.1,4.6,3.3C747.3,115.7,745.7,116.9,744.9,117.7z M785.2,116.2c2.8-3.2,5.7-4.9,8.4-4.9
		c2.8,0,4.2,1,4.2,2.9c0,2.4-1.9,5-5.8,7.7c-3.9,2.7-7.6,4.5-11.1,5.4C781,123.1,782.4,119.4,785.2,116.2z"/>
	<polygon class="st0" points="50.8,290 74.3,290 74.3,282.1 59.4,282.1 59.4,266.1 71.2,266.1 71.2,258.3 59.4,258.3 59.4,243.1 
		74.3,243.1 74.3,235.2 50.8,235.2 	"/>
	<path class="st0" d="M118.5,259.7c-5.6-4.9-7.3-7.9-7.3-11.9c0-3.9,1.6-5.4,4.3-5.4c2.7,0,4.3,1.5,4.3,5.4v2.3h8.1v-1.7
		c0-8.8-4.3-13.8-12.7-13.8c-8.4,0-12.7,5-12.7,13.8c0,6.3,2.3,10.8,9.5,17.1c5.6,4.9,7.3,7.9,7.3,11.9c0,3.9-1.7,5.3-4.5,5.3
		c-2.7,0-4.5-1.4-4.5-5.3v-3.9h-8.1v3.4c0,8.8,4.4,13.8,12.8,13.8s12.8-5,12.8-13.8C128,270.6,125.7,266,118.5,259.7z"/>
	<polygon class="st0" points="154.5,243.1 163.5,243.1 163.5,290 172.1,290 172.1,243.1 181.1,243.1 181.1,235.2 154.5,235.2 	"/>
	<path class="st0" d="M226,277.5c0,3.9-1.7,5.3-4.5,5.3c-2.7,0-4.5-1.4-4.5-5.3v-42.2h-8.6v41.7c0,8.8,4.4,13.8,12.8,13.8
		c8.4,0,12.8-5,12.8-13.8v-41.7H226V277.5z"/>
	<path class="st0" d="M277.7,235.2h-13.6V290h13.6c8.6,0,12.8-4.8,12.8-13.5v-27.7C290.5,240,286.3,235.2,277.7,235.2z M281.9,276.8
		c0,3.9-1.6,5.3-4.4,5.3h-4.8v-39.1h4.8c2.7,0,4.4,1.4,4.4,5.3V276.8z"/>
	<rect x="320.1" y="235.2" class="st0" width="8.6" height="54.7"/>
	<path class="st0" d="M371.4,234.6c-8.4,0-13.1,5-13.1,13.8v28.5c0,8.8,4.6,13.8,13.1,13.8c8.4,0,13.1-5,13.1-13.8v-28.5
		C384.4,239.6,379.8,234.6,371.4,234.6z M375.8,277.4c0,3.9-1.7,5.4-4.5,5.4c-2.7,0-4.5-1.5-4.5-5.4v-29.6c0-3.9,1.7-5.4,4.5-5.4
		c2.7,0,4.5,1.5,4.5,5.4V277.4z"/>
	<path class="st0" d="M463.9,235.2h-13.6V290h13.6c8.6,0,12.8-4.8,12.8-13.5v-27.7C476.7,240,472.5,235.2,463.9,235.2z M468.1,276.8
		c0,3.9-1.6,5.3-4.4,5.3h-4.8v-39.1h4.8c2.7,0,4.4,1.4,4.4,5.3V276.8z"/>
	<polygon class="st0" points="506.2,290 529.7,290 529.7,282.1 514.8,282.1 514.8,266.1 526.6,266.1 526.6,258.3 514.8,258.3 
		514.8,243.1 529.7,243.1 529.7,235.2 506.2,235.2 	"/>
	<path class="st0" d="M615.5,260.9v-0.2c3.8-1.8,5.6-5.3,5.6-10.9v-2c0-8.4-3.8-12.6-12.7-12.6h-13V290h13.5c8.6,0,13.1-4.5,13.1-13
		v-4.5C621.9,266.7,620.1,262.7,615.5,260.9z M603.9,243.1h4.1c3,0,4.4,1.7,4.4,5.6v3c0,4.4-2,5.8-5.2,5.8h-3.4V243.1z M613.3,276.8
		c0,4.1-1.6,5.4-4.5,5.4h-4.9v-16.8h3.8c3.9,0,5.6,1.6,5.6,6.6V276.8z"/>
	<path class="st0" d="M657.6,235.2l-8.8,54.7h7.9l1.5-9.9h10.6l1.5,9.9h8.7l-8.8-54.7H657.6z M659.3,272.6l4.1-27.7h0.2l4.1,27.7
		H659.3z"/>
	<rect x="707" y="235.2" class="st0" width="8.6" height="54.7"/>
	<polygon class="st0" points="754.6,235.2 746,235.2 746,290 768.7,290 768.7,282.1 754.6,282.1 	"/>
	<polygon class="st0" points="820,243.1 820,235.2 796.5,235.2 796.5,290 820,290 820,282.1 805.1,282.1 805.1,266.1 817,266.1 
		817,258.3 805.1,258.3 805.1,243.1 	"/>
</g>
</svg>
